<mxfile host="app.diagrams.net" modified="2022-04-14T06:41:29.446Z" agent="5.0 (Macintosh; Intel Mac OS X 10_15_7) AppleWebKit/605.1.15 (KHTML, like Gecko) Version/15.4 Safari/605.1.15" etag="x_8XCfDr7d2TXcc8v7ny" version="17.4.0" type="github">
  <diagram id="vsaM09zi7yV6WPfComJP" name="Page-1">
    <mxGraphModel dx="1378" dy="828" grid="1" gridSize="10" guides="1" tooltips="1" connect="1" arrows="1" fold="1" page="1" pageScale="1" pageWidth="850" pageHeight="1100" math="0" shadow="0">
      <root>
        <mxCell id="0" />
        <mxCell id="1" parent="0" />
        <mxCell id="bT22ACR74dKV-6-3jw7O-10" value="" style="rounded=0;whiteSpace=wrap;html=1;dashed=1;" vertex="1" parent="1">
          <mxGeometry x="270" y="390" width="170" height="120" as="geometry" />
        </mxCell>
        <mxCell id="bT22ACR74dKV-6-3jw7O-3" value="" style="edgeStyle=orthogonalEdgeStyle;rounded=0;orthogonalLoop=1;jettySize=auto;html=1;" edge="1" parent="1" source="bT22ACR74dKV-6-3jw7O-1" target="bT22ACR74dKV-6-3jw7O-2">
          <mxGeometry relative="1" as="geometry" />
        </mxCell>
        <mxCell id="bT22ACR74dKV-6-3jw7O-1" value="Deploy &amp;amp;&amp;amp; Launcher" style="rounded=0;whiteSpace=wrap;html=1;" vertex="1" parent="1">
          <mxGeometry x="90" y="280" width="120" height="60" as="geometry" />
        </mxCell>
        <mxCell id="bT22ACR74dKV-6-3jw7O-7" value="" style="edgeStyle=orthogonalEdgeStyle;rounded=0;orthogonalLoop=1;jettySize=auto;html=1;" edge="1" parent="1" source="bT22ACR74dKV-6-3jw7O-2" target="bT22ACR74dKV-6-3jw7O-6">
          <mxGeometry relative="1" as="geometry" />
        </mxCell>
        <mxCell id="bT22ACR74dKV-6-3jw7O-2" value="Server" style="rounded=0;whiteSpace=wrap;html=1;" vertex="1" parent="1">
          <mxGeometry x="90" y="420" width="120" height="60" as="geometry" />
        </mxCell>
        <mxCell id="bT22ACR74dKV-6-3jw7O-6" value="" style="whiteSpace=wrap;html=1;rounded=0;" vertex="1" parent="1">
          <mxGeometry x="290" y="420" width="120" height="60" as="geometry" />
        </mxCell>
        <mxCell id="bT22ACR74dKV-6-3jw7O-8" value="" style="whiteSpace=wrap;html=1;rounded=0;" vertex="1" parent="1">
          <mxGeometry x="300" y="430" width="120" height="60" as="geometry" />
        </mxCell>
        <mxCell id="bT22ACR74dKV-6-3jw7O-9" value="instances" style="whiteSpace=wrap;html=1;rounded=0;" vertex="1" parent="1">
          <mxGeometry x="310" y="440" width="120" height="60" as="geometry" />
        </mxCell>
        <mxCell id="bT22ACR74dKV-6-3jw7O-11" value="faked MySQL Slave" style="text;html=1;strokeColor=none;fillColor=none;align=center;verticalAlign=middle;whiteSpace=wrap;rounded=0;dashed=1;" vertex="1" parent="1">
          <mxGeometry x="295" y="400" width="125" height="20" as="geometry" />
        </mxCell>
      </root>
    </mxGraphModel>
  </diagram>
</mxfile>
